/* XPM */
static char *logo_220[] = {
/* columns rows colors chars-per-pixel */
"220 82 62 1",
"  c #7E5642",
". c #73594D",
"X c #75594C",
"o c #77594C",
"O c #75594F",
"+ c #6F5B52",
"@ c #6D5C55",
"# c #665F5E",
"$ c #685D59",
"% c #695D5A",
"& c #695E5A",
"* c #725A50",
"= c #705B53",
"- c #5F6165",
"; c #5F6265",
": c #5E6166",
"> c #5D6266",
", c #5D6267",
"< c #5E6266",
"1 c #5E6267",
"2 c #5B6269",
"3 c #5B6369",
"4 c #59636B",
"5 c #5A636A",
"6 c #5B636A",
"7 c #5C6268",
"8 c #626061",
"9 c #636061",
"0 c #616163",
"q c #646060",
"w c #606164",
"e c #616164",
"r c #86523A",
"t c #007FBD",
"y c #007FBE",
"u c #007FBF",
"i c #0080BF",
"p c #0080C0",
"a c #0080C1",
"s c #0081C1",
"d c #0081C2",
"f c #0081C3",
"g c #0081C4",
"h c #0082C5",
"j c #0082C6",
"k c #0082C7",
"l c #0083C7",
"z c #0083C8",
"x c #0084CA",
"c c #0084CB",
"v c #0084CC",
"b c #0F85CE",
"n c #0085D0",
"m c #0086D3",
"M c #0087D4",
"N c #0087D5",
"B c #0087D6",
"V c #0089D9",
"C c #0088DA",
"Z c #0089DC",
"A c #008BE1",
"S c None",
/* pixels */
"SSSSSSSSSSSSSSSSSSSSSSSSSSSSSSSSSSSSSSSSSSSSSSSSSSSSSSSSSSSSSSSSSSSSSSSSSSSSSSSSSSSSSSSSSSSSSSSSSSSSSSSSSSSSSSSSSSSSSSSSSSSSSSSSSSSSSSSSSSSSSSSSSSSSSSSSSSSSSSSSSSSSSSSSSSSSSSSSSSSSSSSSSSSSSSSSSSSSSSSSSSSSSSSSSSSSSSSSSSSS",
"SSSSSSSSSSSSSSSSSSSSSSSSSSSSSSSSSSSSSSSSSSSffffffffSSSSSSSSffffffffffSSSSSSSSSSSSSSSSSSSSSSSSSSSSSSSSSSSSSSSSSSSSSSSSSffSSSSSSSSSSSSSSSSSSSSSSSSSSSSSSSSSSSSSSSSSSSSSSSSSSSSSSSSSSSSSSSSSSSSSSSSSSSSSSSSSSSSSSSSSSSSSSSSSSSS",
"SSSSSSSSSSSSSSSSSSSSSSSSSSSSSSSSSSSSSSSSffffffffffffffSSffffffffffffffffSSSSSSSSSSSSSSSSSSSSSSSSSSSSSSSSSSSSSSSSSSSSSffffSSSSSSSSSSSSSSSSSSSSSSSSSSSSSSSSSSSSSSSSSSSSSSSSSSSSSSSSSSSSSSSSSSSSSSSSSSSSSSSSSSSSSSSSSSSSSSSSSSS",
"SSSSSSSSSSSSSSSSSSSSSSSSSSSSSSSSSSSSSffffffffffffffffffffffffffffffffffffffSSSSSSSSSSSSSSSSSSSSSSSSSSSSSSSSSSSSSSSSSfffffSSSSSSSSSSSSSSSSSSSSSSSSSSSSSSSSSSSSSSSSSSSSSSSSSSSSSSSSSSSSSSSSSSSSSSSSSSSSSSSSSSSSSSSSSSSSSSSSSSS",
"SSSSSSSSSSSSSSSSSSSSSSSSSSSSSSSSSSSffffffffffffffffffffffffffffffffffffffffffSSSSSSSSSSSSSSSSSSSSSSSSSSSSSSSSSSSSSSffffffSSSSSSSSSSSSSSSSSSSSSSSSSSSSSSSSSSSSSSSSSSSSSSSSSSSSSSSSSSSSSSSSSSSSSSSSSSSSSSSSSSSSSSSSSSSSSSSSSSS",
"SSSSSSSSSSSSSSSSSSSSSSSSSSSSSSSSSffffffffffffffffffffffffffffffffffffffffffffffSSSSSSSSSSSSSSSSSSSSSSSSSSSSSSSSSSfffffffSSSSSSSSSSSSSSSSSSSSSSSSSSSSSSSSSSSSSSSSSSSSSSSSSSSSSSSSSSSSSSSSSSSSSSSSSSSSSSSSSSSSSSSSSSSSSSSSSSSS",
"SSSSSSSSSSSSSSSSSSSSSSSSSSSSSSSSffffffffffffffffffffffffffffffffffffffffffffffffSSSSSSSSSSSSSSSSSSSSSSSSSSSSSSSSffffffffSSSSSSSSSSSSSSSSSSSSSSSSSSSSSSSSSSSSSSSSSSSSSSSSSSSSSSSSSSSSSSSSSSSSSSSSSSSSSSSSSSSSSSSSSSSSSSSSSSSS",
"SSSSSSSSSSSSSSSSSSSSSSSSSSSSSSffffffffffffffSSffffffffffffffffffffffffffffffffffffSSSSSSSSSSSSSSSSSSSSSSSSSSSSSffffffffSSSSSSSSSSSSSSSSSSSSSSSSSSSSSSSSSSSSSSSSSSSSSSSSSSSSSSSSSSSSSSSSSSSSSSSSSSSSSSSSSSSSSSSSSSSSSSSSSSSSS",
"SSSSSSSSSSSSSSSSSSSSSSSSSSSSSfffffffffffffSSSffffffffffffSSSSfffffffffffffffffffffffSSSSSSSSSSSSSSSSSSSSSSSSSfffffffffSSSSSSSSSSSSSSSSSSSSffffffffffSSSSSSSSSSSSSSSSSSSSSSSSSSSSSSSSSSSSSSSSSSSSSSSSSSSSSSSSSSSSSSSSSSSSSSSS",
"SSSSSSSSSSSSSSSSSSSSSSSSSSSfffffffffffffSSSSfffffffffffffSSSSSSSfffffffffffffffffffffSSSSSSSSSSSSSSSSSSSSSSffffffffffSSSSSSSSSSSSSSSSSSSSSffffffffffSSSSSSSSSSSSSSSSSSSSSSSSSSSSSSSSSSSSSSSSSSSSSSSSSSSSSSSSSSSSSSSSSSSSSSSS",
"SSSSSSSSSSSSSSSSSSSSSSSSSSfffffffffffffSSSSfffffffSSfffffSSSSSSSSSfffffffffffffffffffffSSSSSSSSSSSSSSSSSSfffffffffffSSSSSSSSSSSSSSSSSSSSSSffffffffffSSSSSSSSSSSSSSSSSSSSSSSSSSSSSSSSSSSSSSSSSSSSSSSSSSSSSSSSSSSSSSSSSSSSSSSS",
"SSSSSSSSSSSSSSSSSSSSSSSSSfffffffffffffSSSSfffffffSSSfffffSSSSSSSSSSSfffffffffffffffffffffSSSSSSSSSSSSSSffffffffffffSSSSSSSSSSSSSSSSSSSSSSSffffffffffSSSSSSSSSSSSSSSSSSSSSSSSSSSSSSSSSSSSSSSSSSSSSSSSSSSSSSSSSSSSSSSSSSSSSSSS",
"SSSSSSSSSSSSSSSSSSSSSSSSffffffffffffSSSSSfffffffSSSSfffffSSSSSSSSSSSSSffffffffffffffffffffffSSSSSfffffffffffffffffSSSSSSSSSSSfffffffSSSSSSffffffffffSSSSSSSSSSSSSSSSSSSSSSSSSSSSSSSSSSSSSSSSSSSSSSSSSSSSSSSSSSSSSSSSSSSSSSSS",
"SSSSSSSSSSSSSSSSSSSSSSSffffffffffffSSSSSfffffffSSSSSfffffSSSSSSSSSSSSSSSfffffffffffffffffffffffffffffffffffffffffSSSSSSSSSSffffffffffSSSSSffffffffffSSSSSSSSSSSSSSSSSSSSSSSSSSSSSSSSSSSSSSSSSSSSSSSSSSSSSSSSSSSSSSSSSSSSSSSS",
"SSSSSSSSSSSSSSSSSSSSSSffffffffffffSSSSSfffffffSSSSSffffffSSSSSSSSSSSSSSSSSfffffffffffffffffffffffffffffffffffffSSSSSSSSSSSfffffffffffSSSSSffffffffffSSSSSSSSSSSSSSSSSSSSSSSSSSSSSSSSSSSSSSSSSSSSSSSSSSSSSSSSSSSSSSSSSSSSSSSS",
"SSSSSSSSSSSSSSSSSSSSSffffffffffffSSSSSSffffffSSSSSSffffffSSSSSSSSSSSSSSSSSSSffffffffffffffffffffffffffffffffffSSSSSSSSSSSfffffffffffSSSSSSffffffffffSSSSSSSSSSSSSSSSSSSSSSSSSSSSSSSSSSSSSSSSSSSSSSSSSSSSSwwwwwwwSSSSSSSSSSSS",
"SSSSSSSSSSSSSSSSSSSSfffffffffffffSSSSSffffffSSSSSSSfffffSSSSSSSSSSSSSSSSSSSSSSffffffffffffffffffffffffffffffSSSSSSSSSSSSSfffffffffffSSSSSSffffffffffSSSSSSSSSSSSSSSSSSSSSSSSSSSSSSSSSSSSSSSSSSSSSSSSSSSSwwwwwwwwwSSSSSSSSSSS",
"SSSSSSSSSSSSSSSSSSSfffffffffffffSSSSSffffffSSSSSSSffffffSSSSSSSSSSSSSSSSSSSSSSSffffffffffffffffffffffffffffSSSSSSSSSSSSSfffffffffffSSSSSSSffffffffffSSSSSSSSSSSSSSSSSSSSSSSSSSSSSSSSSSSSSSSSSSSSSSSSSSSSwwwwwwwwwSSSSSSSSSSS",
"SSSSSSSSSSSSSSSSSSfffffffffffffSSSSSSffffffSSSSSSfffffffSSSSSSSSSSSSSSSSSSSSSSSSSffffffffffffffffffffffffSSSSSSSSSSSSSSSfffffffffffSSSSSSSSSSfffffffSSSSSSSSSSSSSSSSSSSSSSSSSSSSSSSSSSSSSSSSSSSSSSSSSSSSwwwwwwwwwSSSSSSSSSSS",
"SSSSSSSSSSSSSSSSSfffffffffffffSSSSSSffffffSSSSSSSffffffSSSSSSSSSSSSSSSSSSSSSSSSSSSSffffffffffffffffffffSSSSSSSSSSSSSSSSfffffffffffSSSSSSSSSSSSffffffSSSSSSSSSSSSSSSSSSSSSSSSSSSSSSSSSSSSSSSSSSSSSSSSSSSSwwwwwwwwwSSSSSSSSSSS",
"SSSSSSSSSSSSSSSSfffffffffffffSSSSSSSffffffSSSSSSffffffSSSSSSSSSSSSSSSSSSSSSSSSSSSSSSSfffffffffffffffSSSSSSSSSSSSSSSSSSSfffffffffffSSSSSSSSSSSfffffffSSSSSSSSSSSSSSSSSSSSSSSSSSSSSSSSSSSSSSSSSSSSSSSSSSSSwwwwwwwwwSSSSSSSSSSS",
"SSSSSSSSSSSSSSSfffffffffffffSSSSSSSSfffffSSSSSSfffffffSSSSSSSSSSSSSSSSSSSSSSSSSSSSSSSSSSSSfffffSSSSSSSSSSSSSSSSSSSSSSSfffffffffffSSSSSSSSSSSSfffffffSSSSSSSSSSSSSSSSSSSSSSSSSSSSSSSSSSSSSSSSSSSSSSSSSSSSwwwwwwwwwSSSSSSSSSSS",
"SSSSSSSSSSSSSSfffffffffffffSSSSSSSSffffffSSSSSfffffffSSSSSSSSSSSSSSSSSSSSSSSSSSSSSSSSSSSSSSSSSSSSSSSSSSSSSSSSSSSSSSSSffffffffffffSSSSSSSSSSSSffffffSSSSSSSSSSSSSSSSSSSSSSSSSSSSSSSSSSSSSSSSSSSSSSSSSSSSSwwwwwwwwwSSSSSSSSSSS",
"SSSSSSSSSSSSSSfffffffffffffSSSSSSSSffffffSSSSfffffffSSSSSSSSSSSSSSSSSSSSSSSSSSSSSSSSSSSSSSSSSSSSSSSSSSSSSSSSSSSSSSSSSfffffffffffSSSSSSSSSSSSfffffffSSSSSSSSSSSSSSSSSSSSSSSSSSSSSSSSSSSSSSSSSSSSSSSSSSSSSwwwwwwwwwSSSSSSSSSSS",
"SSSSSSSSSSSSSfffffffffffffSSSSSSSSSffffffSSSffffffffSSSSSSSSSSSSSSSSSSSSSSSSSSSSSSSSSSSSSSSSSSSSSSSSSSSSSSSSSSSSSSSSffffffffffffSSSSSSSSSSffffffffSSSSSSSSSSSSSSSSSSSSSSSSSSSSSSSSSSSSSSSSSSSSSSSSSSSSSSwwwwwwwwwSSSSSSSSSSS",
"SSSSSSSSSSSSfffffffffffffSSSSSSSSSSffffffffffffffffSSSSSSSSSSSSSSSSSSSSSSSSSSSSSSSSSSSSSSSSSSSSSSSSSSSwwwwSSSSSSSSSSffffffffffffSSSSSSSSSSffffffffSSSSSSSSSSSSSSSSSSSSSSSSSSSSSSSSSSSSSSSSSSSSSSSSSSSSSSwwwwwwwwwSSSSSSSSSSS",
"SSSSSSSSSSSffffffffffffffSSSSSSSSSSSffffffffffffffSSSSSSSSSSSSSSSSSSSSSSSSSSSSSSSSSSSSSSSSSSSSSSSSSSSwwwwwSSSSSSSSSffffffffffffSSSSSSSSSSSfffffffSSSSSSSSSSSSSSSSSSSSSSSSSSSSSSSSSSSSSSSSSSSSSSSSSSSSSSSwwwwwwwwwSSSSSSSSSSS",
"SSSSSSSSSSSfffffffffffffSSSSSSSSSSSSffffffffffffSSSSSSSSSSSSSSSSSSSSSSSSSSSSSSSSSSSSSSSSSSSSSSSSSSSSwwwwwwSSSSSSSSSffffffffffffSSSSSSSSSSSffffffSSSSSSSSSSSSSSSSSSSSSSSSSSSSSSSSSSSSSSSSSSSSSSSSSSSSSSSSwwwwwwwwwSSSSSSSSSSS",
"SSSSSSSSSSfffffffffffffSSSSSSSSSSSSSSffffffffffSSSSSSSSSSSSSSSSSSSSSSSSSSSSSSSSSSSSSSSSSSSSSSSSSSSSwwwwwwSSSSSSSSSffffffffffffSSSSSSSSSSSSSfffSSSSSSSSSSSSSSSSSSSSSSSSSSSSSSSSSSSSSSSSSSSSSSSSSSSSSSSSSSwwwwwwwwwSSSSSSSSSSS",
"SSSSSSSSSffffffffffffffSSSSSSSSSSSSSSSSfffffSSSSSSSSSSSSSSSSSSSSSSSSSSSSSSSSSSSSSSSSSSSSSSSSSSSSSSSwwwwwwSSSSSSSSSffffffffffffSSSSSSSSSSSSSSfSSSSSSSSSSSwwwwwwwSSSSSSSSSSSSSSSSSSSwwwwwwwwSSSSSSSSwwwwwwwwwwwwwwwwwwwwwwwwSS",
"SSSSSSSSSfffffffffffffSSSSSSSSSSSSSSSSSSSSSSSSSSSSSSSSSSSSSSSSSSSSSSSSSSSSSSSSSSSSSSSSSSSSSSSSSSSSwwwwwwSSSSSSSSSffffffffffffSSSSSSSSSSSSSSSSSSSSSSSSSSwwwwwwwwwSSSSSSSSSSSSSSSSSSwwwwwwwwSSSSSSSwwwwwwwwwwwwwwwwwwwwwwwwwww",
"SSSSSSSSffffffffffffffSSSSSSSSSSSSSSSSSSSSSSSSSSSSSSSSSSSSSSSSSSSSSSSSSSSSSSSSSSSSSSSSSSSSSSSSSSSwwwwwwSSSSSSSSSSffffffffffffSSSSSSSSSSSSSSSSSSSSSSSSSSwwwwwwwwwSSSSSSSSSSSSSSSSSSwwwwwwwwSSSSSSSwwwwwwwwwwwwwwwwwwwwwwwwwww",
"SSSSSSSSfffffffffffffSSSSSSSSSSffffSSSSSSSSSSSSSSSSSSSSSSSSSSSSSSSSSSSSSSSSSSSSSSSSSSSSSSSSSSSwwwwwwwwwwSSSSSSSSffffffffffffSSSSSSSSSSSSSSSSSSSSSSSSSSSwwwwwwwwwSSSSSSSSSSSSSSSSSSwwwwwwwwSSSSSSSwwwwwwwwwwwwwwwwwwwwwwwwwww",
"SSSSSSSfffffffffffffSSSSSSSSfffffffffSSSSSSSSSSSSSSSSSSSSfffffSSSffffffffSSSSSSSSSSSSSSSSSwwwwwwwwwwwwwwwSSSSSSSffffffffffffSSSSSSSSSSSSSSSSSSSSSSSSSSSwwwwwwwwwSSSSSSSSSSSSSSSSSSwwwwwwwwSSSSSSSwwwwwwwwwwwwwwwwwwwwwwwwwww",
"SSSSSSSfffffffffffffSSSSSSfffffffffffffSSSSSSSSSSSSSSSffffffffffffffffffffSSSSSSSSSSSSSSwwwwwwwwwwwwwwwwwwSSSSSffffffffffffSSSSSSSSSSSSSSSSSSSSSSSSSSSSwwwwwwwwwSSSSSSSSSSSSSSSSSSwwwwwwwwSSSSSSSwwwwwwwwwwwwwwwwwwwwwwwwwww",
"SSSSSSfffffffffffffSSSSSffffffffffffffffSSSSSSSSSSSSSfffffffffffffffffffffSSSSSSSSSSSSwwwwwwwwwwwwwwwwwwwwSSSSSffffffffffffSfffffSSSSSSSSSSSSSSSSSSSSSSwwwwwwwwwSSSSSSSSSSSSSSSSSSwwwwwwwwSSSSSSSSwwwwwwwwwwwwwwwwwwwwwwwwwS",
"SSSSSffffffffffffffSSSSfffffffffffffffffSSSSSSSSSSSffffffffffffffffffffffSSSSSSSSSSSwwwwwwwwwwwwwwwwwwwwwwqSSSfffffffffffffffffffffSSSSSSSSSSSSSSSSSSSSwwwwwwwwwSSSSSSSSSSSSSSSSSSwwwwwwwwSSSSSSSSSSSSSSwwwwwwwwwSSSSSSSSSSS",
"SSSSSfffffffffffffSSSSSfffffffffffffffffSSSSSSSSSSfffffffffffffffffffffffSSSSSSSSSSwwwwwwwwwwwwwwwwwwwwwww%SSSdfffffffffffffffffffffSSSSSSSSSSSSSSSSSSSwwwwwwwwwSSSSSSSSSSSSSSSSSSwwwwwwwwSSSSSSSSSSSSSSwwwwwwwwwSSSSSSSSSSS",
"SSSSSfffffffffffffSSSSffffffffffffffffffSSSSSSSSSfffffffffffSSfffffffffffSSSSSSSSSwwwwwwwwwwwwwwwwwwwwwww:=SShdfffffffffffffffffffffSSSSSSSSSSSSSSSSSSSwwwwwwwwwSSSSSSSSSSSSSSSSSSwwwwwwwwSSSSSSSSSSSSSSwwwwwwwwwSSSSSSSSSSS",
"SSSSfffffffffffffSSSSffffffffffffSSSfffffSSSSSSSfffffffffffSSSffffffffffSSSSSSSSSwwwwwwwwwwwwwwwSSwwwwwww:SSSaffffffffffffffffffffffSSSSSSSSSSSSSSSSSSSwwwwwwwwwSSSSSSSSSSSSSSSSSSwwwwwwwwSSSSSSSSSSSSSSwwwwwwwwwSSSSSSSSSSS",
"SSSSfffffffffffffSSSffffffffffffSSSSfffffSSSSSSfffffffffffSSSfffffffffffSSSSSSSSwwwwwwwwwwwwwSSSSwwwwwww<SSSjdffffffffffSSfffffffffffSSSSSSSSSSSSSSSSSSwwwwwwwwwSSSSSSSSSSSSSSSSSSwwwwwwwwSSSSSSSSSSSSSSwwwwwwwwwSSSSSSSSSSS",
"SSSffffffffffffffSSSfffffffffffSSSSSffffSSSSSSfffffffffffSSSfffffffffffSSSSSSSSwwwwwwwwwwwSSSSSSwwwwwww-SSSSafffffffffffSSSffffffffffSSSSSSSSSSSSSSSSSSwwwwwwwwwSSSSSSSSSSSSSSSSSSwwwwwwwwSSSSSSSSSSSSSSwwwwwwwwwSSSSSSSSSSS",
"SSSfffffffffffffSSSSffffffffffSSSSSSffffSSSSSfffffffffffSSSSffffffffffSSSSSSSSSwwwwwwwwwSSSSSSSSwwwwwwwSSSSsfffffffffffSSSfffffffffffSSSSSSSSSSSSSSSSSSwwwwwwwwwSSSSSSSSSSSSSSSSSSwwwwwwwwSSSSSSSSSSSSSSwwwwwwwwwSSSSSSSSSSS",
"SSSfffffffffffffSSSfffffffffffSSSSSfffffSSSSfffffffffffSSSSfffffffffffSSSSSSSSwwwwwwwwSSSSSSSSSSSwwwwSSSSSSfffffffffffSSSSfffffffffffSSSSSSSSSSSSSSSSSSwwwwwwwwwSSSSSSSSSSSSSSSSSSwwwwwwwwSSSSSSSSSSSSSSwwwwwwwwwSSSSSSSSSSS",
"SSfffffffffffffSSSSfffffffffffSSSSSfffffSSSffffffffffffSSSSffffffffffSSSSSSSSSwwwwwwwSSSSSSSSSSSSSSSSSSSSSffffffffffffSSSSffffffffffSSSSSSSSSSSSSSSSSSSwwwwwwwwwSSSSSSSSSSSSSSSSSSwwwwwwwwSSSSSSSSSSSSSSwwwwwwwwwSSSSSSSSSSS",
"SSfffffffffffffSSSfffffffffffSSSSSSfffffSSSfffffffffffSSSSfffffffffffSSSSSSSSSwwwwwwSSSSSSSSSSSSSSSSSSSSSSfffffffffffSSSSSffffffffffSSSSSSSSSSSSSSSSSSSwwwwwwwwwSSSSSSSSSSSSSSSSSSwwwwwwwwSSSSSSSSSSSSSSwwwwwwwwwSSSSSSSSSSS",
"SSfffffffffffffSSSfffffffffffSSSSSSfffffSSfffffffffffSSSSfffffffffffSSSSSSSSSSwwwwwwSSSSSSSwwwwwSSSSSSSSSfffffffffffSSSSSfffffffffffSSSSSSSSSSSSSSSSSSSwwwwwwwwwSSSSSSSSSSSSSSSSSSwwwwwwwwSSSSSSSSSSSSSSwwwwwwwwwSSSSSSSSSSS",
"SSfffffffffffffSSSfffffffffffSSSSSfffffSSfffffffffffSSSSSffffffffffSSSSSSSSSSSwwwwwwwwwwwwwwwwwwwwSSSSSSSfffffffffffSSSSSffffffffffSSSSSSSSSSSSSSSSSSSSwwwwwwwwwSSSSSSSSSSSSSSSSSSwwwwwwwwSSSSSSSSSSSSSSwwwwwwwwwSSSSSSSSSSS",
"SfffffffffffffSSSSffffffffffSSSSSSfffffSffffffffffffSSSSfffffffffffSSSSSSSSSSSwwwwwwwwwwwwwwwwwwwwwSSSSSfffffffffffSSSSSSffffffffffSSSSSSSSSSSSSSSSSSSSwwwwwwwwwSSSSSSSSSSSSSSSSSSwwwwwwwwSSSSSSSSSSSSSSwwwwwwwwwSSSSSSSSSSS",
"SfffffffffffffSSSSffffffffSSSSSSSfffffSSfffffffffffSSSSfffffffffffSSfffSSSSSSSSwwwwwwwwwwwwwwwwwwwwSSSSSfffffffffffSSSSSfffffffffffSSSSSSSSSSSSSSSSSSSSwwwwwwwwwSSSSSSSSSSSSSSSSSSwwwwwwwwSSSSSSSSSSSSSSwwwwwwwwwSSSSSSSSSSS",
"SfffffffffffffSSSSfffffffSSSSSSSffffffSffffffffffffSSSSffffffffffSSSffffSSSSSSSSwwwwwwwwwwwwwwwwwwwwSSSfffffffffffSSSSSSffffffffffSSSSSSSSSSSSSSSSSSSSSwwwwwwwwwSSSSSSSSSSSSSSSSSSwwwwwwwwSSSSSSSSSSSSSSwwwwwwwwwSSSSSSSSSSS",
"SfffffffffffffSSSSfffffSSSSSSSSSfffffSSfffffffffffSSSSfffffffffffSSfffffSSSSSSSSSwwwwwwwwwwwwwwwww-eSSSfffffffffffSSSSSfffffffffffSSSSSSSSSSSSSSSSSSSSSwwwwwwwwwSSSSSSSSSSSSSSSSSSwwwwwwwwSSSSSSSSSSSSSSwwwwwwwwwSSSSSSSSSSS",
"SfffffffffffffSSSSffffSSSSSSSSSffffffSffffffffffffSSSfffffffffffSSfffffSSSSSSSSSSSSwwwwSSSSSSwwwww<&SScffffffffffSSSSSSffffffffffSSSSSSSSSSSSSSSSSSSSSSwwwwwwwwwSSSSSSSSSSSSSSSSSSwwwwwwwwSSSSSSSSSSSSSSwwwwwwwwwSSSSSSSSSSS",
"SfffffffffffffSSSSffSSSSSSSSSSffffffSSfffffffffffSSSSfffffffffffSSffffaSSSSSSSSSSSSSSSSSSSSSwwwwww<.SSdfffffffffSSSSSSfffffffffffSSSSSSSSSSSSSSSSSSSSSSwwwwwwwwwSSSSSSSSSSSSSSSSSSwwwwwwwwSSSSSSSSSSSSSSwwwwwwwwwSSSSSSSSSSS",
"SfffffffffffffSSSSSSSSSSSSSSSfffffffSffffffffffffSSSfffffffffffSSffffuSSSSSSSSSSSSSSSSSSSSSSwwwwww9OSNdfffffffffSSSSSSffffffffffSSSSSSSSSSSSSSSSSSSSSSSwwwwwwwwwSSSSSSSSSSSSSSSSSSwwwwwwwwSSSSSSSSSSSSSSwwwwwwwwwSSSSSSSSSSS",
"SfffffffffffffSSSSSSSSSSSSSSfffffffSSfffffffffffSSSfffffffffffSSffffyBSSSSSSSSSSSSSSSSSSSSSwwwwww-@SSxafffffffffSSSSSfffffffffffSSSSSSSSSSSSSSSSSSSSSSSwwwwwwwwwSSSSSSSSSSSSSSSSSSwwwwwwwwSSSSSSSSSSSSSSwwwwwwwwwSSSSSSSSSSS",
"SffffffffffffffSSSSSSSSSSSSfffffffSSffffffffffffSSffffffffffffSffffiZSSS1wwwSSSSSSSSSSSSSSwwwwww0:+SMdfffffffffSSSSSSffffffffffSSSSSSSSSSSSSSSSSSSSSSSSwwwwwwwwwSSSSSSSSSSSSSSSSSSwwwwwwwwSSSSSSSSSSSSSSwwwwwwwwwSSSSSSSSSSS",
"SffffffffffffffSSSSSSSSSSSfffffffSSSffffffffffffSSfffffffffffffffftVSS*7wwwwwSSSSSSSSSSSSwwwwwww,$SSzafffffffffSSSSSfffffffffffSSSSSSSfffSSSSSSSSSSSSSSwwwwwwwwwSSSSSSSSSSSSSSSSSSwwwwwwwwSSSSSSSSSSSSSSwwwwwwwwwSSSSSSSSSSS",
"SfffffffffffffffSSSSSSSSfffffffffSSSfffffffffffffffffffffffffffffimSSX2wwwwwwSSSSSSSSSSwwwwwwww-6rSAigffffffffSSSSSSffffffffffSSSSSSSffffSSSSSSSSSSSSSSwwwwwwwwwSSSSSSSSSSSSSSSSSwwwwwwwwwSSSSSSSSSSSSSSwwwwwwwwwSSSSSSSSSSS",
"SSffffffffffffffffSSffffffffffffSSSSffffffffffffffffffffffffffffsnbS.5wwwwwwSSSSSSSSSSwwwwwwwww3oSSlfffffffffSSSSSSfffffffffffSSSSSSffffSSSSSSSSSSSSSSSwwwwwwwwwSSSSSSSSSSSSSSSSwwwwwwwwwwSSSSSSSSSSSSSSwwwwwwwwwSSSSSSSSSSS",
"SSfffffffffffffffffffffffffffffSSSSSffffffffffffffffffffffffffffaVS 4-wwwwwSSSSSSSSSwwwwwwwwww,#SSZifffffffffSSSSSSffffffffffSSSSSSfffffSSSSSSSSSSSSSSSSwwwwwwwwSSSSSSSSSSSSSSwwwwwwwwwwwwSSSSSSSSSSSSSSwwwwwwwwwSSSSSSSSSSS",
"SSSffffffffffffffffffffffffffSSSSSSSfffffffffffffffffffffffffffavSS8;wwwwSSSSSSSSwwwwwwwwwwww<0SSCpffffffffffSSSSSfffffffffffSSSSffffffSSSSSSSSSSSSSSSSSwwwwwwwwwSSSSSSSSSSSSwwwwwwwwwwwwwSSSSSSSSSSSSSSwwwwwwwwwSSSSSSSSSSS",
"SSSfffffffffffffffffffffffffSSSSSSSSfffffffffffffffffffffffffffaSSS;wwwwwSSwwwwwwwwwwwwwwwww-wSSSgdfffffffffSSSSSSffffffffffSSffffffffSSSSSSSSSSSSSSSSSSwwwwwwwwwwSSSSSSSSSwwwwwwwwwwwwwwwSSSSSSSSSSSSSSwwwwwwwwwwSSSSSSSSSS",
"SSSSfffffffffffffffffffffffSSSSSSSSSSffffffffffffffffffffffffffSSSSwwwwwwwwwwwwwwwwwwwwwwwww>SSSksffffffffffSSSSSSffffffffffffffffffffSSSSSSSSSSSSSSSSSSwwwwwwwwwwwwwSSwwwwwwwwwwwwwwwwwwwSSSSSSSSSSSSSSSwwwwwwwwwwwwwwwwwSS",
"SSSSSffffffffffffffffffffSSSSSSSSSSSSSfffffffffffSSffffffffffSSSSSSwwwwwwwwwwwwwwwwwwwwwwww;SSSSfffffffffffSSSSSSffffffffffffffffffffSSSSSSSSSSSSSSSSSSSSwwwwwwwwwwwwwwwwwwwwwwwwwwwwwwwwwSSSSSSSSSSSSSSSwwwwwwwwwwwwwwwwwww",
"SSSSSSSffffffffffffffffSSSSSSSSSSSSSSSffffffffffSSSfffffffffSSSSSSSSwwwwwwwwwwwwwwwwwwwwwwSSSSSpfffffffffffSSSSSSSffffffffffffffffffSSSSSSSSSSSSSSSSSSSSSwwwwwwwwwwwwwwwwwwwwwwwwwwwwwwwwwSSSSSSSSSSSSSSSwwwwwwwwwwwwwwwwwww",
"SSSSSSSSSSffffffffffSSSSSSSSSSSSSSSSSSSSffffffSSSSSSffffffSSSSSSSSSSwwwwwwwwwwwwwwwwwwwwwSSSSSSfffffffffffSSSSSSSSfffffffffffffffffSSSSSSSSSSSSSSSSSSSSSSSwwwwwwwwwwwwwwwwwwwwwwSSwwwwwwwwSSSSSSSSSSSSSSSSwwwwwwwwwwwwwwwwww",
"SSSSSSSSSSSSSSSSSSSSSSSSSSSSSSSSSSSSSSSSSSSSSSSSSSSSSSSSSSSSSSSSSSSSSwwwwwwwwwwwwwwwwwwSSSSSSSSffffffffSSSSSSSSSSSffffffffffffffffSSSSSSSSSSSSSSSSSSSSSSSSSwwwwwwwwwwwwwwwwwwwwSSSwwwwwwwwSSSSSSSSSSSSSSSSSwwwwwwwwwwwwwwwww",
"SSSSSSSSSSSSSSSSSSSSSSSSSSSSSSSSSSSSSSSSSSSSSSSSSSSSSSSSSSSSSSSSSSSSSSSwwwwwwwwwwwwwSSSSSSSSSSSSSSSSSSSSSSSSSSSSSSSfffffffffffffSSSSSSSSSSSSSSSSSSSSSSSSSSSSwwwwwwwwwwwwwwwwwSSSSSwwwwwwwwSSSSSSSSSSSSSSSSSSwwwwwwwwwwwwwwww",
"SSSSSSSSSSSSSSSSSSSSSSSSSSSSSSSSSSSSSSSSSSSSSSSSSSSSSSSSSSSSSSSSSSSSSSSSSwwwwwwwSSSSSSSSSSSSSSSSSSSSSSSSSSSSSSSSSSSSffffffffffSSSSSSSSSSSSSSSSSSSSSSSSSSSSSSSSwwwwwwwwwwwwwSSSSSSSwwwwwwwwSSSSSSSSSSSSSSSSSSSwwwwwwwwwwwwwww",
"SSSSSSSSSSSSSSSSSSSSSSSSSSSSSSSSSSSSSSSSSSSSSSSSSSSSSSSSSSSSSSSSSSSSSSSSSwwwwwwSSSSSSSSSSSSSSSSSSSSSSSSSSSSSSSSSSSSSSSSSSSSSSSSSSSSSSSSSSSSSSSSSSSSSSSSSSSSSSSSSwwwwwwwwSSSSSSSSSSSSSSSSSSSSSSSSSSSSSSSSSSSSSSSSSwwwwwwSSSSS",
"SSSSSSSSSSSSSSSSSSSSSSSSSSSSSSSSSSSSSSSSSSSSSSSSSSSSSSSSSSSSSSSSSSSSSSSSwwwwwwSSSSSSSSSSSSSSSSSSSSSSSSSSSSSSSSSSSSSSSSSSSSSSSSSSSSSSSSSSSSSSSSSSSSSSSSSSSSSSSSSSSSSSSSSSSSSSSSSSSSSSSSSSSSSSSSSSSSSSSSSSSSSSSSSSSSSSSSSSSSSS",
"SSSSSSSSSSSSSSSSSSSSSSSSSSSSSSSSSSSSSSSSSSSSSSSSSSSSSSSSSSSSSSSSSSSSSSSwwwwwwwSSSSSSSSSSSSSSSSSSSSSSSSSSSSSSSSSSSSSSSSSSSSSSSSSSSSSSSSSSSSSSSSSSSSSSSSSSSSSSSSSSSSSSSSSSSSSSSSSSSSSSSSSSSSSSSSSSSSSSSSSSSSSSSSSSSSSSSSSSSSSS",
"SSSSSSSSSSSSSSSSSSSSSSSSSSSSSSSSSSSSSSSSSSSSSSSSSSSSSSSSSSSSSSSSSSSSSSSwwwwwwSSSSSSSSSSSSSSSSSSSSSSSSSSSSSSSSSSSSSSSSSSSSSSSSSSSSSSSSSSSSSSSSSSSSSSSSSSSSSSSSSSSSSSSSSSSSSSSSSSSSSSSSSSSSSSSSSSSSSSSSSSSSSSSSSSSSSSSSSSSSSSS",
"SSSSSSSSSSSSSSSSSSSSSSSSSSSSSSSSSSSSSSSSSSSSSSSSSSSSSSSSSSSSSSSSSSSSSSwwwwwwSSSSSSSSSSSSSSSSSSSSSSSSSSSSSSSSSSSSSSSSSSSSSSSSSSSSSSSSSSSSSSSSSSSSSSSSSSSSSSSSSSSSSSSSSSSSSSSSSSSSSSSSSSSSSSSSSSSSSSSSSSSSSSSSSSSSSSSSSSSSSSSS",
"SSSSSSSSSSSSSSSSSSSSSSSSSSSSSSSSSSSSSSSSSSSSSSSSSSSSSSSSSSSSSSSSSSSSSSwwwwwwSSSSSSSSSSSSSSSSSSSSSSSSSSSSSSSSSSSSSSSSSSSSSSSSSSSSSSSSSSSSSSSSSSSSSSSSSSSSSSSSSSSSSSSSSSSSSSSSSSSSSSSSSSSSSSSSSSSSSSSSSSSSSSSSSSSSSSSSSSSSSSSS",
"SSSSSSSSSSSSSSSSSSSSSSSSSSSSSSSSSSSSSSSSSSSSSSSSSSSSSSSSSSSSSSSSSSSSSwwwwwwSSSSSSSSSSSSSSSSSSSSSSSSSSSSSSSSSSSSSSSSSSSSSSSSSSSSSSSSSSSSSSSSSSSSSSSSSSSSSSSSSSSSSSSSSSSSSSSSSSSSSSSSSSSSSSSSSSSSSSSSSSSSSSSSSSSSSSSSSSSSSSSSS",
"SSSSSSSSSSSSSSSSSSSSSSSSSSSSSSSSSSSSSSSSSSSSSSSSSSSSSSSSSSSSSSSSSSSSSwwwwwwSSSSSSSSSSSSSSSSSSSSSSSSSSSSSSSSSSSSSSSSSSSSSSSSSSSSSSSSSSSSSSSSSSSSSSSSSSSSSSSSSSSSSSSSSSSSSSSSSSSSSSSSSSSSSSSSSSSSSSSSSSSSSSSSSSSSSSSSSSSSSSSSS",
"SSSSSSSSSSSSSSSSSSSSSSSSSSSSSSSSSSSSSSSSSSSSSSSSSSSSSSSSSSSSSSSSSSSSwwwwwwSSSSSSSSSSSSSSSSSSSSSSSSSSSSSSSSSSSSSSSSSSSSSSSSSSSSSSSSSSSSSSSSSSSSSSSSSSSSSSSSSSSSSSSSSSSSSSSSSSSSSSSSSSSSSSSSSSSSSSSSSSSSSSSSSSSSSSSSSSSSSSSSSS",
"SSSSSSSSSSSSSSSSSSSSSSSSSSSSSSSSSSSSSSSSSSSSSSSSSSSSSSSSSSSSSSSSSSSSwwwwwSSSSSSSSSSSSSSSSSSSSSSSSSSSSSSSSSSSSSSSSSSSSSSSSSSSSSSSSSSSSSSSSSSSSSSSSSSSSSSSSSSSSSSSSSSSSSSSSSSSSSSSSSSSSSSSSSSSSSSSSSSSSSSSSSSSSSSSSSSSSSSSSSSS",
"SSSSSSSSSSSSSSSSSSSSSSSSSSSSSSSSSSSSSSSSSSSSSSSSSSSSSSSSSSSSSSSSSSSSSwwwSSSSSSSSSSSSSSSSSSSSSSSSSSSSSSSSSSSSSSSSSSSSSSSSSSSSSSSSSSSSSSSSSSSSSSSSSSSSSSSSSSSSSSSSSSSSSSSSSSSSSSSSSSSSSSSSSSSSSSSSSSSSSSSSSSSSSSSSSSSSSSSSSSSS",
"SSSSSSSSSSSSSSSSSSSSSSSSSSSSSSSSSSSSSSSSSSSSSSSSSSSSSSSSSSSSSSSSSSSSSSSSSSSSSSSSSSSSSSSSSSSSSSSSSSSSSSSSSSSSSSSSSSSSSSSSSSSSSSSSSSSSSSSSSSSSSSSSSSSSSSSSSSSSSSSSSSSSSSSSSSSSSSSSSSSSSSSSSSSSSSSSSSSSSSSSSSSSSSSSSSSSSSSSSSSS"
};
